Coordinates
version=1
nRows=6
nColumns=36
inDegrees=yes

Units are S.I. units (second, meters, Newtons, ...)
If the header above contains a line with 'inDegrees', this indicates whether rotational values are in degrees (yes) or radians (no).

endheader
time	pelvis_tilt	pelvis_list	pelvis_rotation	pelvis_tx	pelvis_ty	pelvis_tz	hip_flexion_r	hip_adduction_r	hip_rotation_r	knee_angle_r	knee_angle_r_beta	ankle_angle_r	subtalar_angle_r	mtp_angle_r	hip_flexion_l	hip_adduction_l	hip_rotation_l	knee_angle_l	knee_angle_l_beta	ankle_angle_l	subtalar_angle_l	mtp_angle_l	lumbar_extension	lumbar_bending	lumbar_rotation	arm_flex_r	arm_add_r	arm_rot_r	elbow_flex_r	pro_sup_r	arm_flex_l	arm_add_l	arm_rot_l	elbow_flex_l	pro_sup_l
      6.65000000	    -16.81118863	      0.64994332	     -1.13632390	      0.91474444	      1.39721304	      0.05906452	     17.17880060	     -4.72440656	    -21.21246201	      2.95941667	      0.05165156	    -42.97618929	     -2.43716813	     -7.49999987	     15.25864231	     -6.47213848	    -13.95204096	      7.89809899	      0.13784783	    -27.38320172	     10.06508802	     -7.49999987	     21.71507823	     -2.25760804	      2.22471062	    333.26107602	    -29.40747083	    344.50028575	     22.46412989	     71.40978183	    177.12716636	   -135.43843535	    161.07797366	     29.50180849	     69.84588451
      6.66666670	    -16.74437986	      0.40898658	     -1.13823826	      0.91493517	      1.40226544	      0.06069070	     17.51518916	     -4.31125932	    -21.04362822	      3.28035757	      0.05725304	    -42.67686563	     -2.50533158	     -7.49999987	     15.59543762	     -6.71542549	    -13.56036957	      8.47778678	      0.14796529	    -26.86385990	     10.25204662	     -7.49999987	     21.65350354	     -2.03927127	      2.15739615	    333.50940646	    -25.62617884	    344.38714236	     18.08140906	     70.43908552	    175.90219373	   -139.30580424	    160.51130162	     27.22052482	     69.36194956
      6.68333330	    -16.61494410	      0.18474467	     -1.19727206	      0.91372511	      1.40284844	      0.06229416	     17.88576271	     -3.98255370	    -20.48571214	      3.82445565	      0.06674934	    -42.18156073	     -2.79318816	     -7.49999987	     16.18040905	     -7.18923086	    -12.23429934	      9.66473393	      0.16868143	    -25.58626711	     10.39717244	     -7.49999987	     21.47171039	     -1.88963708	      1.47324025	    334.91146688	    -22.81801152	    350.33220003	     13.26522818	     61.04533240	    174.16212907	   -142.71291172	    160.27656142	     26.01648786	     65.62806913
      6.70000000	    -16.58445409	     -0.06750987	     -1.43472884	      0.91833999	      1.40346984	      0.06132235	     18.33331635	     -3.67267989	    -20.03592613	      4.35363017	      0.07598518	    -41.61242534	     -3.39587932	     -7.49999987	     16.70657484	     -7.63297540	    -10.82419244	     10.44722312	      0.18233844	    -24.41839770	     10.91555111	     -7.49999987	     21.53017684	     -1.51350934	      1.83350115	    334.80717443	    -19.67638470	    350.25201624	     10.95498304	     60.40446052	    173.47969315	   -145.88587893	    161.76959414	     24.34164890	     65.47691380
      6.71666670	    -16.68305339	     -0.09962342	     -1.57458733	      0.92260020	      1.40642103	      0.06026544	     18.73041372	     -3.52119477	    -19.99114845	      4.31395925	      0.07529279	    -41.24759264	     -3.45538444	     -7.49999987	     17.29664532	     -7.69281614	    -10.17808594	     10.83069245	      0.18903124	    -24.66526432	     10.70198515	     -7.49999987	     21.65130813	     -1.30746434	      2.28805412	    335.01300383	    -16.66191849	    352.03114196	      8.58122153	     59.34328634	    172.32517321	   -149.02985024	    163.37044190	     23.10657866	     64.25555930
      6.73333330	    -16.87229465	     -0.18005480	     -1.40409237	      0.92906174	      1.40994398	      0.06169322	     18.90110849	     -3.26231478	    -20.57114939	      3.81242411	      0.06653935	    -40.88626695	     -2.84798982	     -7.49999987	     17.81605582	     -7.74816685	    -10.50440206	     10.59972927	      0.18500018	    -25.75913601	     10.27750744	     -7.49999987	     22.44279230	     -1.10107827	      2.50362564	    334.96216396	    -13.71458652	    350.69745375	      7.12184711	     59.59514926	    170.98943131	   -152.28423942	    164.64400554	     21.81530877	     63.63771939
